<svg width="33" height="32" viewBox="0 0 33 32" fill="none" xmlns="http://www.w3.org/2000/svg">
<g clip-path="url(#clip0_291_1328)">
<path d="M9.99354 31.401C9.36263 30.9813 8.80346 30.4626 8.33754 29.865C7.82502 29.2482 7.35016 28.601 6.91554 27.927C5.89562 26.4328 5.09577 24.7998 4.54054 23.078C3.87354 21.078 3.55054 19.161 3.55054 17.286C3.55054 15.192 4.00354 13.364 4.88954 11.828C5.54632 10.6275 6.51195 9.6242 7.68654 8.92202C8.82485 8.215 10.1328 7.82807 11.4725 7.80202C11.9415 7.80202 12.4465 7.87002 12.9825 8.00002C13.3675 8.10902 13.8365 8.28102 14.4095 8.49502C15.1385 8.77602 15.5395 8.94802 15.6755 8.99002C16.1025 9.14602 16.4615 9.21402 16.7435 9.21402C16.9575 9.21402 17.2595 9.14602 17.6025 9.04202C17.7955 8.97402 18.1595 8.85402 18.6805 8.63102C19.1965 8.44302 19.6025 8.28202 19.9255 8.16202C20.4205 8.01602 20.8995 7.88102 21.3265 7.81302C21.8328 7.73322 22.3465 7.71208 22.8575 7.75002C23.7432 7.80791 24.6155 7.99558 25.4465 8.30702C26.8055 8.85402 27.9045 9.70802 28.7225 10.922C28.3768 11.1351 28.0523 11.3809 27.7535 11.656C27.1031 12.2326 26.5492 12.9095 26.1125 13.661C25.5418 14.6881 25.246 15.8451 25.2535 17.02C25.2745 18.463 25.6445 19.734 26.3735 20.833C26.9095 21.6475 27.606 22.3441 28.4205 22.88C28.8375 23.161 29.1965 23.354 29.5405 23.484C29.3795 23.984 29.2075 24.468 29.0045 24.948C28.5441 26.0244 27.9861 27.0564 27.3375 28.031C26.7595 28.87 26.3065 29.495 25.9625 29.911C25.4265 30.546 24.9105 31.031 24.3895 31.369C23.8165 31.749 23.1395 31.952 22.4515 31.952C21.9856 31.9699 21.5198 31.9135 21.0715 31.785C20.6865 31.655 20.3055 31.514 19.9305 31.353C19.5407 31.174 19.1387 31.0226 18.7275 30.9C17.7112 30.639 16.6457 30.6373 15.6285 30.895C15.2115 31.015 14.8105 31.155 14.4145 31.327C13.8575 31.561 13.4875 31.718 13.2735 31.785C12.8465 31.91 12.4035 31.988 11.9555 32.014C11.2625 32.014 10.6165 31.816 9.97654 31.415L9.99354 31.401ZM19.1335 6.78602C18.2275 7.23902 17.3625 7.43202 16.5035 7.36902C16.3685 6.50402 16.5035 5.61902 16.8625 4.65002C17.1682 3.82909 17.6198 3.07021 18.1955 2.41002C18.8035 1.71505 19.5413 1.1454 20.3675 0.733023C21.2475 0.280023 22.0865 0.0350234 22.8885 -0.000976562C22.9925 0.905023 22.8885 1.79602 22.5555 2.75902C22.2474 3.61031 21.7966 4.40295 21.2225 5.10302C20.6366 5.79895 19.9175 6.37081 19.1075 6.78502L19.1335 6.78602Z" fill="#666666"/>
</g>
<defs>
<clipPath id="clip0_291_1328">
<rect width="32" height="32" fill="white" transform="translate(0.555542)"/>
</clipPath>
</defs>
</svg>
