<svg width="33" height="32" viewBox="0 0 33 32" fill="none" xmlns="http://www.w3.org/2000/svg">
<path d="M0.5 16C0.5 24.8366 7.66344 32 16.5 32C25.3366 32 32.5 24.8366 32.5 16C32.5 7.16344 25.3366 0 16.5 0C7.66344 0 0.5 7.16344 0.5 16Z" fill="#7D976F"/>
<path d="M24.5 16C24.5 11.6 20.9 8 16.5 8C12.1 8 8.5 11.6 8.5 16C8.5 20 11.4 23.3 15.2 23.9V18.3H13.2V16H15.2V14.2C15.2 12.2 16.4 11.1 18.2 11.1C19.1 11.1 20 11.3 20 11.3V13.3H19C18 13.3 17.7 13.9 17.7 14.5V16H19.9L19.5 18.3H17.6V24C21.6 23.4 24.5 20 24.5 16Z" fill="#F7F4F4"/>
</svg>
