<svg width="33" height="32" viewBox="0 0 33 32" fill="none" xmlns="http://www.w3.org/2000/svg">
<path d="M0.5 16C0.5 24.8366 7.66344 32 16.5 32C25.3366 32 32.5 24.8366 32.5 16C32.5 7.16344 25.3366 0 16.5 0C7.66344 0 0.5 7.16344 0.5 16Z" fill="#7D976F"/>
<path d="M16.5 9.19995C18.7 9.19995 19 9.19995 19.9 9.19995C20.7 9.19995 21.1 9.39995 21.4 9.49995C21.8 9.69995 22.1 9.79995 22.4 10.1C22.7 10.4 22.9 10.7 23 11.1C23.1 11.4 23.2 11.8 23.3 12.6C23.3 13.5 23.3 13.7 23.3 16C23.3 18.3 23.3 18.5 23.3 19.4C23.3 20.2 23.1 20.6 23 20.9C22.8 21.3 22.7 21.6 22.4 21.9C22.1 22.2 21.8 22.4 21.4 22.5C21.1 22.6 20.7 22.7 19.9 22.8C19 22.8 18.8 22.8 16.5 22.8C14.2 22.8 14 22.8 13.1 22.8C12.3 22.8 11.9 22.6 11.6 22.5C11.2 22.3 10.9 22.2 10.6 21.9C10.3 21.6 10.1 21.3 9.99995 20.9C9.89995 20.6 9.79995 20.2 9.69995 19.4C9.69995 18.5 9.69995 18.3 9.69995 16C9.69995 13.7 9.69995 13.5 9.69995 12.6C9.69995 11.8 9.89995 11.4 9.99995 11.1C10.2 10.7 10.3 10.4 10.6 10.1C10.9 9.79995 11.2 9.59995 11.6 9.49995C11.9 9.39995 12.3 9.29995 13.1 9.19995C14 9.19995 14.3 9.19995 16.5 9.19995ZM16.5 7.69995C14.2 7.69995 14 7.69995 13.1 7.69995C12.2 7.69995 11.6 7.89995 11.1 8.09995C10.6 8.29995 10.1 8.59995 9.59995 9.09995C9.09995 9.59995 8.89995 9.99995 8.59995 10.6C8.39995 11.1 8.29995 11.7 8.19995 12.6C8.19995 13.5 8.19995 13.8 8.19995 16C8.19995 18.3 8.19995 18.5 8.19995 19.4C8.19995 20.3 8.39995 20.9 8.59995 21.4C8.79995 21.9 9.09995 22.4 9.59995 22.9C10.1 23.4 10.5 23.6 11.1 23.9C11.6 24.1 12.2 24.1999 13.1 24.2999C14 24.2999 14.3 24.2999 16.5 24.2999C18.7 24.2999 19 24.2999 19.9 24.2999C20.8 24.2999 21.4 24.1 21.9 23.9C22.4 23.7 22.9 23.4 23.4 22.9C23.9 22.4 24.1 22 24.4 21.4C24.6 20.9 24.6999 20.3 24.7999 19.4C24.7999 18.5 24.7999 18.2 24.7999 16C24.7999 13.8 24.7999 13.5 24.7999 12.6C24.7999 11.7 24.6 11.1 24.4 10.6C24.2 10.1 23.9 9.59995 23.4 9.09995C22.9 8.59995 22.5 8.39995 21.9 8.09995C21.4 7.89995 20.8 7.79995 19.9 7.69995C19 7.69995 18.8 7.69995 16.5 7.69995Z" fill="#F6F4F4"/>
<path d="M16.5 11.7C14.1 11.7 12.2 13.6 12.2 16C12.2 18.4 14.1 20.3 16.5 20.3C18.9 20.3 20.8 18.4 20.8 16C20.8 13.6 18.9 11.7 16.5 11.7ZM16.5 18.8C15 18.8 13.7 17.6 13.7 16C13.7 14.5 14.9 13.2 16.5 13.2C18 13.2 19.3 14.4 19.3 16C19.3 17.5 18 18.8 16.5 18.8Z" fill="#F6F4F4"/>
<path d="M20.9 12.6C21.4522 12.6 21.9 12.1522 21.9 11.6C21.9 11.0477 21.4522 10.6 20.9 10.6C20.3477 10.6 19.9 11.0477 19.9 11.6C19.9 12.1522 20.3477 12.6 20.9 12.6Z" fill="#F6F4F4"/>
</svg>
