<svg width="33" height="32" viewBox="0 0 33 32" fill="none" xmlns="http://www.w3.org/2000/svg">
<path d="M0.5 16C0.5 24.8366 7.66344 32 16.5 32C25.3366 32 32.5 24.8366 32.5 16C32.5 7.16344 25.3366 0 16.5 0C7.66344 0 0.5 7.16344 0.5 16Z" fill="#7D976F"/>
<path d="M12.1 24H8.7V13.3H12.1V24ZM10.4 11.8C9.3 11.8 8.5 11 8.5 9.9C8.5 8.8 9.4 8 10.4 8C11.5 8 12.3 8.8 12.3 9.9C12.3 11 11.5 11.8 10.4 11.8ZM24.5 24H21.1V18.2C21.1 16.5 20.4 16 19.4 16C18.4 16 17.4 16.8 17.4 18.3V24H14V13.3H17.2V14.8C17.5 14.1 18.7 13 20.4 13C22.3 13 24.3 14.1 24.3 17.4V24H24.5Z" fill="#F6F4F4"/>
</svg>
