<svg width="33" height="32" viewBox="0 0 33 32" fill="none" xmlns="http://www.w3.org/2000/svg">
<path d="M0.5 16C0.5 24.8366 7.66344 32 16.5 32C25.3366 32 32.5 24.8366 32.5 16C32.5 7.16344 25.3366 0 16.5 0C7.66344 0 0.5 7.16344 0.5 16Z" fill="#7D976F"/>
<path d="M24.5 11C23.9 11.3 23.3 11.4 22.6 11.5C23.3 11.1 23.8 10.5 24 9.7C23.4 10.1 22.7 10.3 21.9 10.5C21.3 9.9 20.4 9.5 19.5 9.5C17.4 9.5 15.8 11.5 16.3 13.5C13.6 13.4 11.2 12.1 9.5 10.1C8.6 11.6 9.1 13.5 10.5 14.5C10 14.5 9.5 14.3 9 14.1C9 15.6 10.1 17 11.6 17.4C11.1 17.5 10.6 17.6 10.1 17.5C10.5 18.8 11.7 19.8 13.2 19.8C12 20.7 10.2 21.2 8.5 21C10 21.9 11.7 22.5 13.5 22.5C19.6 22.5 23 17.4 22.8 12.7C23.5 12.3 24.1 11.7 24.5 11Z" fill="#F6F4F4"/>
</svg>
